<?xml version="1.0" encoding="utf-8"?>
<!-- Designed by Vexels.com - 2020 All Rights Reserved - https://vexels.com/terms-and-conditions/  -->
<svg version="1.1" id="Layer_1" xmlns="http://www.w3.org/2000/svg" xmlns:xlink="http://www.w3.org/1999/xlink" x="0px" y="0px"
	 viewBox="0 0 1200 1200" enable-background="new 0 0 1200 1200" xml:space="preserve">
<g>
	<path fill="#E69365" d="M594.379,243.589c0,0-13.308-18.214-38.808-23.344c-23.76-4.78-49.216,24.236-49.216,24.236l32.117,18.289
		l42.377-3.122L594.379,243.589z"/>
	<g>
		<path fill="#292927" d="M496.17,69.25c-0.446-11.895-26.541-27.061-42.154-14.572c-15.612,12.49-30.556,0.446-37.247,18.735
			c-6.691,18.289,10.037,20.073,6.914,31.225c-3.122,11.152-13.159,10.706-10.929,23.642s18.438,9.219,22.898,16.802
			c4.461,7.583,4.609,21.411,20.222,19.627c15.612-1.784,22.006-32.414,22.006-32.414l12.044-56.205
			C489.925,76.09,496.545,79.267,496.17,69.25z"/>
		
			<radialGradient id="SVGID_1_" cx="4013.199" cy="150.7017" r="58.1533" gradientTransform="matrix(-1 0 0 1 4480.4448 0)" gradientUnits="userSpaceOnUse">
			<stop  offset="2.237672e-07" style="stop-color:#000000"/>
			<stop  offset="0.2968" style="stop-color:#050505;stop-opacity:0.7032"/>
			<stop  offset="0.6538" style="stop-color:#141413;stop-opacity:0.3462"/>
			<stop  offset="1" style="stop-color:#292927;stop-opacity:0"/>
		</radialGradient>
		<path fill="url(#SVGID_1_)" d="M496.17,69.25c-0.446-11.895-26.541-27.061-42.154-14.572
			c-15.612,12.49-30.556,0.446-37.247,18.735c-6.691,18.289,10.037,20.073,6.914,31.225c-3.122,11.152-13.159,10.706-10.929,23.642
			s18.438,9.219,22.898,16.802c4.461,7.583,4.609,21.411,20.222,19.627c15.612-1.784,22.006-32.414,22.006-32.414l12.044-56.205
			C489.925,76.09,496.545,79.267,496.17,69.25z"/>
	</g>
	<g>
		<path fill="#0A0A0A" d="M426.068,67.6c7.451,0.001,13.191,4.382,15.207,6.152c7.839-3.569,15.52-3.247,22.266,0.949
			c7.4,4.601,11.635,12.689,11.635,14.175c0,0.806-0.645,1.549-1.451,1.549c-0.806,0-1.45-0.563-1.45-1.369
			c-0.32-1.37-4.754-9.426-12.416-13.048c-5.62-2.659-11.745-2.391-18.207,0.794c-0.564,0.275-1.245,0.163-1.687-0.288
			c-0.059-0.06-5.968-5.997-13.897-5.998c-0.001,0-0.001,0-0.002,0c-3.208,0-6.322,0.997-9.308,2.931
			c0.005-0.012,0.008-0.024,0.012-0.036c0.619-1.693,1.31-3.124,2.065-4.341c2.341-0.96,4.752-1.472,7.23-1.472
			C426.067,67.6,426.068,67.6,426.068,67.6z"/>
		<path fill="#0A0A0A" d="M453.519,61.917c6.221-1.184,11.634-0.358,16.106,2.455c7.552,4.748,9.595,13.407,9.678,13.773
			c0.179,0.785-0.313,1.564-1.097,1.744c-0.11,0.025-0.219,0.037-0.327,0.037c-0.665,0-1.265-0.458-1.421-1.132
			c-0.172-0.742-4.425-18.136-23.53-13.773c-0.753,0.177-1.521-0.286-1.731-1.033c-0.04-0.139-0.891-2.992-3.902-5.27
			c0.942-0.403,1.89-0.872,2.844-1.414C451.947,58.97,452.988,60.749,453.519,61.917z"/>
		<path fill="#0A0A0A" d="M440.108,122.044c0.562-0.251,1.225-0.124,1.654,0.32c3.95,4.122,8.037,6.114,12.126,5.963
			c6.256-0.251,10.624-5.523,10.668-5.576c0.507-0.625,1.428-0.72,2.051-0.212c0.625,0.507,0.722,1.423,0.216,2.049
			c-0.209,0.258-5.204,6.334-12.787,6.653c-0.208,0.009-0.415,0.013-0.622,0.013c-4.508,0-8.895-2.071-13.061-6.166
			c-3.695,1.405-17.319,5.77-27.868-1.313c0.083-1.169,0.294-2.205,0.62-3.13C423.977,129.116,439.317,122.4,440.108,122.044z"/>
	</g>
	<g>
		<path fill="#E69365" d="M566.723,196.008c0,0,2.082,25.277-3.569,34.347c-5.65,9.07-28.4-0.892-28.251-2.974
			c0.149-2.082,1.636-34.645,1.636-34.645L566.723,196.008z"/>
		
			<radialGradient id="SVGID_2_" cx="3934.7976" cy="198.8501" r="27.0272" gradientTransform="matrix(-1 0 0 1 4480.4448 0)" gradientUnits="userSpaceOnUse">
			<stop  offset="1.118836e-07" style="stop-color:#C76028"/>
			<stop  offset="0.2332" style="stop-color:#CA642D;stop-opacity:0.7668"/>
			<stop  offset="0.5243" style="stop-color:#D2713D;stop-opacity:0.4757"/>
			<stop  offset="0.8448" style="stop-color:#DE8656;stop-opacity:0.1552"/>
			<stop  offset="1" style="stop-color:#E69365;stop-opacity:0"/>
		</radialGradient>
		<path fill="url(#SVGID_2_)" d="M566.723,196.008c0,0,2.082,25.277-3.569,34.347c-5.65,9.07-28.4-0.892-28.251-2.974
			c0.149-2.082,1.636-34.645,1.636-34.645L566.723,196.008z"/>
	</g>
	<g>
		<path fill="#E69365" d="M715.115,642.671c0,0,47.283,137.687,55.313,175.156c8.029,37.47,73.453,300.353,70.479,310.166
			c-2.974,9.814-5.948,2.974-8.624-0.595c-2.676-3.568-86.835-189.133-94.864-227.495c-8.029-38.362-6.691-53.082-11.598-65.126
			c-4.907-12.044-86.537-155.529-87.875-161.774C636.607,666.759,715.115,642.671,715.115,642.671z"/>
		
			<radialGradient id="SVGID_3_" cx="3844.73" cy="661.4062" r="118.3083" gradientTransform="matrix(-1 0 0 1 4480.4448 0)" gradientUnits="userSpaceOnUse">
			<stop  offset="1.118836e-07" style="stop-color:#C76028"/>
			<stop  offset="0.2332" style="stop-color:#CA642D;stop-opacity:0.7668"/>
			<stop  offset="0.5243" style="stop-color:#D2713D;stop-opacity:0.4757"/>
			<stop  offset="0.8448" style="stop-color:#DE8656;stop-opacity:0.1552"/>
			<stop  offset="1" style="stop-color:#E69365;stop-opacity:0"/>
		</radialGradient>
		<path fill="url(#SVGID_3_)" d="M715.115,642.671c0,0,47.283,137.687,55.313,175.156c8.029,37.47,73.453,300.353,70.479,310.166
			c-2.974,9.814-5.948,2.974-8.624-0.595c-2.676-3.568-86.835-189.133-94.864-227.495c-8.029-38.362-6.691-53.082-11.598-65.126
			c-4.907-12.044-86.537-155.529-87.875-161.774C636.607,666.759,715.115,642.671,715.115,642.671z"/>
	</g>
	<g>
		<path fill="#E69365" d="M598.245,681.033c0,0,55.907,125.494,55.313,167.722c-0.595,42.228-133.151,211.065-136.72,236.639
			s-6.022,14.349-8.996,14.349s-5.502-0.966-2.379-18.363c3.122-17.397,48.175-129.137,66.018-163.633
			c17.843-34.496,34.793-43.863,33.009-65.869c-1.784-22.006-78.359-141.85-82.523-156.124
			C517.804,681.479,598.245,681.033,598.245,681.033z"/>
		
			<radialGradient id="SVGID_4_" cx="3927.5208" cy="667.6884" r="96.589" gradientTransform="matrix(-1 0 0 1 4480.4448 0)" gradientUnits="userSpaceOnUse">
			<stop  offset="1.118836e-07" style="stop-color:#C76028"/>
			<stop  offset="0.2332" style="stop-color:#CA642D;stop-opacity:0.7668"/>
			<stop  offset="0.5243" style="stop-color:#D2713D;stop-opacity:0.4757"/>
			<stop  offset="0.8448" style="stop-color:#DE8656;stop-opacity:0.1552"/>
			<stop  offset="1" style="stop-color:#E69365;stop-opacity:0"/>
		</radialGradient>
		<path fill="url(#SVGID_4_)" d="M598.245,681.033c0,0,55.907,125.494,55.313,167.722c-0.595,42.228-133.151,211.065-136.72,236.639
			s-6.022,14.349-8.996,14.349s-5.502-0.966-2.379-18.363c3.122-17.397,48.175-129.137,66.018-163.633
			c17.843-34.496,34.793-43.863,33.009-65.869c-1.784-22.006-78.359-141.85-82.523-156.124
			C517.804,681.479,598.245,681.033,598.245,681.033z"/>
	</g>
	<g>
		<path fill="#292927" d="M837.516,1135.005c2.924,0,4.343-3.446,5.253-6.448c2.068-6.826-21.963-108.125-51.199-229.831
			c-9.41-39.177-16.843-70.12-19.24-81.308c-3.907-18.233-17.203-60.478-29.786-98.938c-50.178,8.201-61.197,25.446-66.031,30.179
			c2.637,4.753,5.395,9.721,8.269,14.897c19.686,35.45,36.937,66.312,39.237,71.956c2.406,5.908,3.27,12.63,4.577,22.807
			c1.253,9.752,2.967,23.109,6.918,41.985c4.291,20.497,29.319,80.468,49.559,127.17c21.295,49.135,44.016,98.909,45.654,101.094
			c0.369,0.492,0.744,1.051,1.124,1.617C833.445,1132.554,835.093,1135.005,837.516,1135.005z"/>
		
			<radialGradient id="SVGID_5_" cx="3728.7712" cy="1085.5431" r="158.5777" gradientTransform="matrix(-1 0 0 1 4480.4448 0)" gradientUnits="userSpaceOnUse">
			<stop  offset="2.237672e-07" style="stop-color:#000000"/>
			<stop  offset="0.2968" style="stop-color:#050505;stop-opacity:0.7032"/>
			<stop  offset="0.6538" style="stop-color:#141413;stop-opacity:0.3462"/>
			<stop  offset="1" style="stop-color:#292927;stop-opacity:0"/>
		</radialGradient>
		<path fill="url(#SVGID_5_)" d="M837.516,1135.005c2.924,0,4.343-3.446,5.253-6.448c2.068-6.826-21.963-108.125-51.199-229.831
			c-9.41-39.177-16.843-70.12-19.24-81.308c-3.907-18.233-17.203-60.478-29.786-98.938c-50.178,8.201-61.197,25.446-66.031,30.179
			c2.637,4.753,5.395,9.721,8.269,14.897c19.686,35.45,36.937,66.312,39.237,71.956c2.406,5.908,3.27,12.63,4.577,22.807
			c1.253,9.752,2.967,23.109,6.918,41.985c4.291,20.497,29.319,80.468,49.559,127.17c21.295,49.135,44.016,98.909,45.654,101.094
			c0.369,0.492,0.744,1.051,1.124,1.617C833.445,1132.554,835.093,1135.005,837.516,1135.005z"/>
	</g>
	<g>
		<path fill="#292927" d="M511.839,1104.142c2.946,0,4.733-2.766,6.926-18.477c1.408-10.088,25.731-46.379,51.484-84.8
			c39.793-59.371,84.896-126.665,85.256-152.083c0.347-24.633-13.942-65.163-29.602-104.853
			c-40.592,2.23-66.205,21.912-64.68,24.534c21.822,37.508,40.329,71.234,41.33,83.573c1.054,13.01-4.863,21.467-13.82,34.27
			c-5.432,7.764-12.192,17.427-18.979,30.548c-17.877,34.562-63.044,146.574-66.205,164.183c-2.45,13.646-1.392,17.197,0.118,18.999
			c1.31,1.567,3.137,1.649,4.036,1.653c0.211,0.125,0.61,0.496,0.857,0.726C509.386,1103.184,510.416,1104.142,511.839,1104.142
			C511.839,1104.142,511.839,1104.142,511.839,1104.142z"/>
		
			<radialGradient id="SVGID_6_" cx="3910.5662" cy="1074.8064" r="177.5108" gradientTransform="matrix(-1 0 0 1 4480.4448 0)" gradientUnits="userSpaceOnUse">
			<stop  offset="2.237672e-07" style="stop-color:#000000"/>
			<stop  offset="0.2968" style="stop-color:#050505;stop-opacity:0.7032"/>
			<stop  offset="0.6538" style="stop-color:#141413;stop-opacity:0.3462"/>
			<stop  offset="1" style="stop-color:#292927;stop-opacity:0"/>
		</radialGradient>
		<path fill="url(#SVGID_6_)" d="M511.839,1104.142c2.946,0,4.733-2.766,6.926-18.477c1.408-10.088,25.731-46.379,51.484-84.8
			c39.793-59.371,84.896-126.665,85.256-152.083c0.347-24.633-13.942-65.163-29.602-104.853
			c-40.592,2.23-66.205,21.912-64.68,24.534c21.822,37.508,40.329,71.234,41.33,83.573c1.054,13.01-4.863,21.467-13.82,34.27
			c-5.432,7.764-12.192,17.427-18.979,30.548c-17.877,34.562-63.044,146.574-66.205,164.183c-2.45,13.646-1.392,17.197,0.118,18.999
			c1.31,1.567,3.137,1.649,4.036,1.653c0.211,0.125,0.61,0.496,0.857,0.726C509.386,1103.184,510.416,1104.142,511.839,1104.142
			C511.839,1104.142,511.839,1104.142,511.839,1104.142z"/>
	</g>
	<g>
		<path fill="#E94D1A" d="M583.302,230.95c0.595,3.569-2.899,12.341-14.497,12.341c-29.441,0-41.633-15.092-45.202-14.869
			s-70.479,33.901-66.91,89.214c2.47,38.282,38.065,383.768,38.065,386.593c0,2.825,1.636,8.921,4.609,10.557
			c2.974,1.636,105.264,7.337,181.401-9.665c45.945-10.26,71.371-30.779,71.817-36.132c0.446-5.353-31.225-94.12-31.225-94.12
			s-54.999-215.547-71.966-253.664C616.831,248.049,586.647,230.95,583.302,230.95z"/>
		
			<radialGradient id="SVGID_7_" cx="3989.1741" cy="371.0192" r="201.9815" gradientTransform="matrix(-1 0 0 1 4480.4448 0)" gradientUnits="userSpaceOnUse">
			<stop  offset="0" style="stop-color:#912806"/>
			<stop  offset="1" style="stop-color:#E94D1A;stop-opacity:0"/>
		</radialGradient>
		<path fill="url(#SVGID_7_)" d="M583.302,230.95c0.595,3.569-2.899,12.341-14.497,12.341c-29.441,0-41.633-15.092-45.202-14.869
			s-70.479,33.901-66.91,89.214c2.47,38.282,38.065,383.768,38.065,386.593c0,2.825,1.636,8.921,4.609,10.557
			c2.974,1.636,105.264,7.337,181.401-9.665c45.945-10.26,71.371-30.779,71.817-36.132c0.446-5.353-31.225-94.12-31.225-94.12
			s-54.999-215.547-71.966-253.664C616.831,248.049,586.647,230.95,583.302,230.95z"/>
		
			<radialGradient id="SVGID_8_" cx="3802.7175" cy="541.4174" r="201.9815" gradientTransform="matrix(-1 0 0 1 4480.4448 0)" gradientUnits="userSpaceOnUse">
			<stop  offset="0" style="stop-color:#912806"/>
			<stop  offset="1" style="stop-color:#E94D1A;stop-opacity:0"/>
		</radialGradient>
		<path fill="url(#SVGID_8_)" d="M583.302,230.95c0.595,3.569-2.899,12.341-14.497,12.341c-29.441,0-41.633-15.092-45.202-14.869
			s-70.479,33.901-66.91,89.214c2.47,38.282,38.065,383.768,38.065,386.593c0,2.825,1.636,8.921,4.609,10.557
			c2.974,1.636,105.264,7.337,181.401-9.665c45.945-10.26,71.371-30.779,71.817-36.132c0.446-5.353-31.225-94.12-31.225-94.12
			s-54.999-215.547-71.966-253.664C616.831,248.049,586.647,230.95,583.302,230.95z"/>
	</g>
	<g>
		<path fill="#2779A0" d="M769.535,573.233c0,5.353-1.784,10.557-7.881,13.679c-6.096,3.122-40.89,17.545-49.216,17.099
			c-8.327-0.446-102.447-15.612-104.529-16.951c-2.082-1.338,13.085-8.624,13.085-8.624l-1.933-10.26
			c0,0,60.665-13.233,64.829-13.828c4.163-0.595,71.668,6.84,77.319,8.624C766.859,564.758,769.535,571.746,769.535,573.233z"/>
		
			<radialGradient id="SVGID_9_" cx="3751.8972" cy="556.1965" r="44.9342" gradientTransform="matrix(-1 0 0 1 4480.4448 0)" gradientUnits="userSpaceOnUse">
			<stop  offset="0.271" style="stop-color:#0C5A80"/>
			<stop  offset="1" style="stop-color:#2779A0;stop-opacity:0"/>
		</radialGradient>
		<path fill="url(#SVGID_9_)" d="M769.535,573.233c0,5.353-1.784,10.557-7.881,13.679c-6.096,3.122-40.89,17.545-49.216,17.099
			c-8.327-0.446-102.447-15.612-104.529-16.951c-2.082-1.338,13.085-8.624,13.085-8.624l-1.933-10.26
			c0,0,60.665-13.233,64.829-13.828c4.163-0.595,71.668,6.84,77.319,8.624C766.859,564.758,769.535,571.746,769.535,573.233z"/>
	</g>
	<path fill="#FFFFFF" d="M721.137,593.827c0.237-7.356-8.921-11.598-23.865-14.051s-85.199-11.821-85.199-11.821
		s7.806,6.914,6.691,11.152c-1.115,4.238-7.137,5.799-7.137,5.799s82.746,15.166,93.005,15.612
		C711.155,600.801,720.914,600.741,721.137,593.827z"/>
	<path fill="#E94D1A" d="M767.751,556.214c0,3.62-1.784,7.139-7.881,9.251c-6.096,2.112-40.89,11.865-49.216,11.563
		c-8.327-0.302-102.447-10.558-104.529-11.463s13.085-5.832,13.085-5.832l-1.933-6.938c0,0,60.665-8.949,64.829-9.351
		c4.163-0.402,71.668,4.625,77.319,5.832S767.751,555.208,767.751,556.214z"/>
	<path fill="#FFFFFF" d="M713.921,570.14c0.226-4.975-8.479-7.843-22.681-9.502c-14.202-1.659-80.973-7.994-80.973-7.994
		s7.419,4.676,6.359,7.541s-6.783,3.922-6.783,3.922s78.642,10.256,88.392,10.558C704.435,574.857,713.709,574.816,713.921,570.14z"
		/>
	<path fill="#292927" d="M774.752,531.539c0.107,5.012-1.668,9.924-8.024,12.984c-6.356,3.06-42.7,17.343-51.475,17.112
		c-8.775-0.231-108.168-12.324-110.386-13.53c-0.713-0.388-2.033-1.423-0.143-2.606c3.991-2.497,13.747-5.762,13.747-5.762
		l-3.572-8.914c0,0-9.395,0.122-9.392-2.555c0.003-3.048,68.745-13.535,73.116-14.186s81.174,6.492,87.159,8.036
		C771.765,523.663,774.722,530.147,774.752,531.539z"/>
	
		<radialGradient id="SVGID_10_" cx="3751.9158" cy="519.8965" r="45.5415" gradientTransform="matrix(-1 0 0 1 4480.4448 0)" gradientUnits="userSpaceOnUse">
		<stop  offset="2.237672e-07" style="stop-color:#000000"/>
		<stop  offset="0.2968" style="stop-color:#050505;stop-opacity:0.7032"/>
		<stop  offset="0.6538" style="stop-color:#141413;stop-opacity:0.3462"/>
		<stop  offset="1" style="stop-color:#292927;stop-opacity:0"/>
	</radialGradient>
	<path fill="url(#SVGID_10_)" d="M765.781,522.119c5.984,1.544,8.941,8.027,8.971,9.419c0.107,5.012-1.668,9.924-8.024,12.984
		c-5.871,2.827-37.314,15.221-48.995,16.914c2.069-2.675,3.78-6.618,2.587-12.366c-2.453-11.821-22.08-11.821-32.786-13.159
		c-8.36-1.045-58.878-6.306-80.617-8.561c9.709-3.824,67.702-12.672,71.706-13.268C682.994,513.433,759.797,520.575,765.781,522.119
		z"/>
	<path fill="#FFFFFF" d="M713.216,552.138c0.08-6.892-8.728-10.678-23.009-12.673c-14.281-1.994-81.383-9.342-81.383-9.342
		s7.573,6.315,6.595,10.306c-0.978,3.99-6.682,5.574-6.682,5.574s79.112,12.524,88.893,12.734
		C703.848,558.87,713.141,558.616,713.216,552.138z"/>
	<g>
		<path fill="#FBB93E" d="M768.971,514.575c-0.069,3.658-2.074,7.168-8.735,9.144c-6.662,1.976-44.64,10.929-53.678,10.409
			c-9.039-0.521-111.077-13.327-113.321-14.296c-0.721-0.311-2.045-1.119-0.054-1.905c4.203-1.66,14.377-3.649,14.377-3.649
			l-3.365-6.642c0,0-9.69-0.289-9.591-2.24c0.112-2.222,71.355-7.108,75.885-7.406s83.456,7.992,89.57,9.358
			S768.99,513.559,768.971,514.575z"/>
		
			<linearGradient id="SVGID_11_" gradientUnits="userSpaceOnUse" x1="3798.6431" y1="492.2872" x2="3801.7656" y2="553.3986" gradientTransform="matrix(-1 0 0 1 4480.4448 0)">
			<stop  offset="0" style="stop-color:#B37604"/>
			<stop  offset="1" style="stop-color:#FBB93E;stop-opacity:0"/>
		</linearGradient>
		<path fill="url(#SVGID_11_)" d="M768.971,514.575c-0.069,3.658-2.074,7.168-8.735,9.144c-6.662,1.976-44.64,10.929-53.678,10.409
			c-9.039-0.521-111.077-13.327-113.321-14.296c-0.721-0.311-2.045-1.119-0.054-1.905c4.203-1.66,14.377-3.649,14.377-3.649
			l-3.365-6.642c0,0-9.69-0.289-9.591-2.24c0.112-2.222,71.355-7.108,75.885-7.406s83.456,7.992,89.57,9.358
			S768.99,513.559,768.971,514.575z"/>
	</g>
	<path fill="#FFFFFF" d="M716.136,527.393c0.352-5.021-4.902-8.087-21.102-10.152c-16.2-2.064-97.031-10.358-97.031-10.358
		s8.39,4.927,7.125,7.795c-1.266,2.867-7.827,3.778-7.827,3.778s93.902,12.304,105.04,12.875
		C709.423,531.693,715.805,532.112,716.136,527.393z"/>
	<g>
		<g>
			<path fill="#9AC4D4" d="M776.347,488.585c-0.075,5.069-2.085,9.896-8.747,12.506s-63.252,17.605-72.285,16.709
				s-94.091-16.79-96.333-18.176c-0.721-0.445-2.043-1.59-0.051-2.642c4.204-2.22,14.377-4.78,14.377-4.78l-3.352-9.271
				c0,0-9.685-0.587-9.583-3.29c0.116-3.078,82.433-13.286,86.961-13.612c4.528-0.326,74.007,10.355,80.117,12.366
				S776.368,487.176,776.347,488.585z"/>
			
				<radialGradient id="SVGID_12_" cx="3739.8025" cy="456.244" r="54.5825" gradientTransform="matrix(-1 0 0 1 4480.4448 0)" gradientUnits="userSpaceOnUse">
				<stop  offset="0" style="stop-color:#3994BF"/>
				<stop  offset="1" style="stop-color:#2779A0;stop-opacity:0"/>
			</radialGradient>
			<path fill="url(#SVGID_12_)" d="M776.347,488.585c-0.075,5.069-2.085,9.896-8.747,12.506s-63.252,17.605-72.285,16.709
				s-94.091-16.79-96.333-18.176c-0.721-0.445-2.043-1.59-0.051-2.642c4.204-2.22,14.377-4.78,14.377-4.78l-3.352-9.271
				c0,0-9.685-0.587-9.583-3.29c0.116-3.078,82.433-13.286,86.961-13.612c4.528-0.326,74.007,10.355,80.117,12.366
				S776.368,487.176,776.347,488.585z"/>
		</g>
		<path fill="#FFFFFF" d="M704.901,508.649c0.361-6.953-4.886-11.305-21.075-14.479c-16.189-3.174-80.056-12.403-80.056-12.403
			s8.378,6.992,7.108,10.942c-1.27,3.95-7.83,5.085-7.83,5.085s76.925,15.039,88.058,16.046
			C698.184,514.48,704.562,515.184,704.901,508.649z"/>
	</g>
	<g>
		<g>
			<path fill="#2779A0" d="M597.124,459.77c0.156,7.805,4.313,14.32,10.927,17.051c6.614,2.731,62.921,18.753,71.969,18.02
				c9.049-0.732,94.381-15.076,96.647-16.421c0.729-0.432,2.071-1.553,0.099-2.641c-4.163-2.296-14.288-5.041-14.288-5.041
				l3.287-20.879c0,0,9.694-0.411,9.641-3.115c-0.06-3.08-82.178-14.783-86.699-15.191c-4.522-0.409-74.183,9.007-80.328,10.907
				C602.235,444.361,596.984,452.745,597.124,459.77z"/>
			
				<linearGradient id="SVGID_13_" gradientUnits="userSpaceOnUse" x1="3788.1082" y1="444.4424" x2="3800.0032" y2="500.6471" gradientTransform="matrix(-1 0 0 1 4480.4448 0)">
				<stop  offset="0.271" style="stop-color:#0C5A80"/>
				<stop  offset="1" style="stop-color:#2779A0;stop-opacity:0"/>
			</linearGradient>
			<path fill="url(#SVGID_13_)" d="M597.124,459.77c0.156,7.805,4.313,14.32,10.927,17.051c6.614,2.731,62.921,18.753,71.969,18.02
				c9.049-0.732,94.381-15.076,96.647-16.421c0.729-0.432,2.071-1.553,0.099-2.641c-4.163-2.296-14.288-5.041-14.288-5.041
				l3.287-20.879c0,0,9.694-0.411,9.641-3.115c-0.06-3.08-82.178-14.783-86.699-15.191c-4.522-0.409-74.183,9.007-80.328,10.907
				C602.235,444.361,596.984,452.745,597.124,459.77z"/>
		</g>
		<g>
			<path fill="#FFFFFF" d="M674.168,478.755c-0.234-6.958,1.292-16.121,17.536-19.001s80.269-10.946,80.269-10.946
				s-7.047,5.827-6.849,15.75c0.171,8.585,7.512,11.958,7.512,11.958s-77.186,13.638-88.335,14.442
				C677.213,491.469,674.388,485.295,674.168,478.755z"/>
			
				<linearGradient id="SVGID_14_" gradientUnits="userSpaceOnUse" x1="3760.6465" y1="427.011" x2="3756.1858" y2="477.4167" gradientTransform="matrix(-1 0 0 1 4480.4448 0)">
				<stop  offset="2.237672e-07" style="stop-color:#000000"/>
				<stop  offset="0.1993" style="stop-color:#0C0C0C;stop-opacity:0.7789"/>
				<stop  offset="0.6226" style="stop-color:#212120;stop-opacity:0.3092"/>
				<stop  offset="0.9013" style="stop-color:#292927;stop-opacity:0"/>
			</linearGradient>
			<path fill="url(#SVGID_14_)" d="M674.168,478.755c-0.234-6.958,1.292-16.121,17.536-19.001s80.269-10.946,80.269-10.946
				s-7.047,5.827-6.849,15.75c0.171,8.585,7.512,11.958,7.512,11.958s-77.186,13.638-88.335,14.442
				C677.213,491.469,674.388,485.295,674.168,478.755z"/>
		</g>
	</g>
	<g>
		<g>
			<path fill="#292927" d="M604.815,440.877c-0.134,4.022-0.106,7.18,6.388,8.344c6.494,1.164,62.047,7.345,71.097,6.631
				c9.05-0.713,94.672-11.279,96.982-12.057c0.742-0.25,2.123-0.878,0.197-1.366c-4.066-1.03-14.061-2.072-14.061-2.072
				l4.052-10.896c0,0,9.682-0.571,9.729-1.965c0.054-1.587-81.396-4.582-85.89-4.625c-4.494-0.043-74.307,7.398-80.505,8.606
				C606.607,432.687,604.936,437.258,604.815,440.877z"/>
			
				<linearGradient id="SVGID_15_" gradientUnits="userSpaceOnUse" x1="3789.1753" y1="461.8488" x2="3786.2017" y2="418.4315" gradientTransform="matrix(-1 0 0 1 4480.4448 0)">
				<stop  offset="2.237672e-07" style="stop-color:#000000"/>
				<stop  offset="0.1993" style="stop-color:#0C0C0C;stop-opacity:0.7789"/>
				<stop  offset="0.6226" style="stop-color:#212120;stop-opacity:0.3092"/>
				<stop  offset="0.9013" style="stop-color:#292927;stop-opacity:0"/>
			</linearGradient>
			<path fill="url(#SVGID_15_)" d="M604.815,440.877c-0.134,4.022-0.106,7.18,6.388,8.344c6.494,1.164,62.047,7.345,71.097,6.631
				c9.05-0.713,94.672-11.279,96.982-12.057c0.742-0.25,2.123-0.878,0.197-1.366c-4.066-1.03-14.061-2.072-14.061-2.072
				l4.052-10.896c0,0,9.682-0.571,9.729-1.965c0.054-1.587-81.396-4.582-85.89-4.625c-4.494-0.043-74.307,7.398-80.505,8.606
				C606.607,432.687,604.936,437.258,604.815,440.877z"/>
		</g>
		<path fill="#FFFFFF" d="M676.111,447.597c0.024-3.582,0.843-8.048,12.939-9.293c16.352-1.683,86.647-9.614,86.647-9.614
			s-3.01,2.537-3.181,7.65c-0.147,4.424,2.815,6.623,2.815,6.623s-77.473,9.899-88.62,10.727
			C679.625,454.217,676.088,450.963,676.111,447.597z"/>
	</g>
	<g>
		<path fill="#FBB93E" d="M549.177,536.383c0,0-12.071-281.132-51.149-279.685c-4.015,0.149-14.126,6.518-14.126,6.518
			s12.044-5.031,15.315,7.757s37.767,264.073,37.767,264.073L549.177,536.383z"/>
		
			<radialGradient id="SVGID_16_" cx="3982.0576" cy="395.943" r="101.4721" gradientTransform="matrix(-1 0 0 1 4480.4448 0)" gradientUnits="userSpaceOnUse">
			<stop  offset="0" style="stop-color:#E09812"/>
			<stop  offset="1" style="stop-color:#FBB93E;stop-opacity:0"/>
		</radialGradient>
		<path fill="url(#SVGID_16_)" d="M549.177,536.383c0,0-12.071-281.132-51.149-279.685c-4.015,0.149-14.126,6.518-14.126,6.518
			s12.044-5.031,15.315,7.757s37.767,264.073,37.767,264.073L549.177,536.383z"/>
	</g>
	<path fill="#B52A0B" d="M541.995,402.705c-1.913,8.027-41.689,36.109-65.75,37.228c-7.292,0.339-18.179-2.774-17.12-7.222
		c1.06-4.448,28.324-38.762,28.324-38.762s28.228-8.291,28.554-8.214c0.325,0.078,18.979,4.064,20.038,4.431
		S541.995,402.705,541.995,402.705z"/>
	<g>
		<path fill="#E69365" d="M590.823,109.198c0,0-5.836,9.727-3.891,19.454c1.945,9.727,13.617,13.617,13.617,33.071
			s-21.399,44.743-38.907,44.743c-33.356,0-46.688-19.454-46.688-19.454l-27.235-31.126l3.891-54.47l17.508-19.454l79.76,1.945
			L590.823,109.198z"/>
		
			<radialGradient id="SVGID_17_" cx="3970.8064" cy="113.287" r="59.405" gradientTransform="matrix(-1 0 0 1 4480.4448 0)" gradientUnits="userSpaceOnUse">
			<stop  offset="1.118836e-07" style="stop-color:#C76028"/>
			<stop  offset="0.2332" style="stop-color:#CA642D;stop-opacity:0.7668"/>
			<stop  offset="0.5243" style="stop-color:#D2713D;stop-opacity:0.4757"/>
			<stop  offset="0.8448" style="stop-color:#DE8656;stop-opacity:0.1552"/>
			<stop  offset="1" style="stop-color:#E69365;stop-opacity:0"/>
		</radialGradient>
		<path fill="url(#SVGID_17_)" d="M590.823,109.198c0,0-5.836,9.727-3.891,19.454c1.945,9.727,13.617,13.617,13.617,33.071
			s-21.399,44.743-38.907,44.743c-33.356,0-46.688-19.454-46.688-19.454l-27.235-31.126l3.891-54.47l17.508-19.454l79.76,1.945
			L590.823,109.198z"/>
		
			<radialGradient id="SVGID_18_" cx="3880.1057" cy="152.8384" r="21.1379" gradientTransform="matrix(-1 0 0 1 4480.4448 0)" gradientUnits="userSpaceOnUse">
			<stop  offset="0" style="stop-color:#E67E5E"/>
			<stop  offset="1" style="stop-color:#E67E5E;stop-opacity:0"/>
		</radialGradient>
		<path fill="url(#SVGID_18_)" d="M590.823,109.198c0,0-5.836,9.727-3.891,19.454c1.945,9.727,13.617,13.617,13.617,33.071
			s-21.399,44.743-38.907,44.743c-33.356,0-46.688-19.454-46.688-19.454l-27.235-31.126l3.891-54.47l17.508-19.454l79.76,1.945
			L590.823,109.198z"/>
		
			<radialGradient id="SVGID_19_" cx="3943.7449" cy="165.3284" r="21.1379" gradientTransform="matrix(-1 0 0 1 4480.4448 0)" gradientUnits="userSpaceOnUse">
			<stop  offset="0" style="stop-color:#E67E5E"/>
			<stop  offset="1" style="stop-color:#E67E5E;stop-opacity:0"/>
		</radialGradient>
		<path fill="url(#SVGID_19_)" d="M590.823,109.198c0,0-5.836,9.727-3.891,19.454c1.945,9.727,13.617,13.617,13.617,33.071
			s-21.399,44.743-38.907,44.743c-33.356,0-46.688-19.454-46.688-19.454l-27.235-31.126l3.891-54.47l17.508-19.454l79.76,1.945
			L590.823,109.198z"/>
	</g>
	<path fill="#E69365" d="M708.424,601.187c0,0-7.806,9.813-26.541,10.036c-18.735,0.223-40.704-13.159-44.718-17.62
		s7.918-8.252,7.918-8.252s24.534,12.378,33.121,13.605C686.79,600.183,708.424,601.187,708.424,601.187z"/>
	<path fill="#E69365" d="M655.23,592.154c0,0,7.71-4.33,12.601-3.457c8.327,1.487,11.821-2.491,14.274-2.602
		c2.453-0.112,0.409,6.877-2.825,7.657c-3.234,0.781-7.881,0.074-6.877,4.424S655.23,592.154,655.23,592.154z"/>
	<g>
		<path fill="#292927" d="M550.144,76.09c0,0,8.698-6.914,18.958-6.914c25.426,0,37.137,22.379,33.009,39.923
			c-6.022,4.795-19.404,11.04-48.398,13.605c-1.999,0.177-5.353-22.526-19.181-22.526c-6.691,0-8.252,5.353-8.252,5.353
			s10.483,19.85,1.115,37.693c-9.367,17.843-27.656,31.002-27.656,31.002s17.099,5.204-2.082,5.204s-38.585-23.865-38.585-63.342
			c0-15.835,22.526-53.528,56.205-53.528S550.144,76.09,550.144,76.09z"/>
		
			<radialGradient id="SVGID_20_" cx="3977.291" cy="181.7576" r="71.7271" gradientTransform="matrix(-1 0 0 1 4480.4448 0)" gradientUnits="userSpaceOnUse">
			<stop  offset="2.237672e-07" style="stop-color:#000000"/>
			<stop  offset="0.3537" style="stop-color:#10100F;stop-opacity:0.6463"/>
			<stop  offset="1" style="stop-color:#292927;stop-opacity:0"/>
		</radialGradient>
		<path fill="url(#SVGID_20_)" d="M550.144,76.09c0,0,8.698-6.914,18.958-6.914c25.426,0,37.137,22.379,33.009,39.923
			c-6.022,4.795-19.404,11.04-48.398,13.605c-1.999,0.177-5.353-22.526-19.181-22.526c-6.691,0-8.252,5.353-8.252,5.353
			s10.483,19.85,1.115,37.693c-9.367,17.843-27.656,31.002-27.656,31.002s17.099,5.204-2.082,5.204s-38.585-23.865-38.585-63.342
			c0-15.835,22.526-53.528,56.205-53.528S550.144,76.09,550.144,76.09z"/>
	</g>
	<path fill="#E69365" d="M525.722,178.105c0,0-6.211,12.215-20.186,12.215c-13.975,0-22.049-14.285-22.152-18.736
		c-0.104-4.451,5.797-15.424,14.492-15.424c8.695,0,19.875,8.488,19.875,8.488L525.722,178.105z"/>
	<g>
		<path fill="#FBB93E" d="M341.607,465.161c0,0,110.382-208.589,144.006-212.775c4.827-0.601,13.754,0.446,18.214,6.84
			c-17.322,4.163-24.831-17.991-151.069,213.072L341.607,465.161z"/>
		
			<radialGradient id="SVGID_21_" cx="4118.9878" cy="462.1879" r="96.6574" gradientTransform="matrix(-1 0 0 1 4480.4448 0)" gradientUnits="userSpaceOnUse">
			<stop  offset="0" style="stop-color:#B37604"/>
			<stop  offset="1" style="stop-color:#FBB93E;stop-opacity:0"/>
		</radialGradient>
		<path fill="url(#SVGID_21_)" d="M341.607,465.161c0,0,110.382-208.589,144.006-212.775c4.827-0.601,13.754,0.446,18.214,6.84
			c-17.322,4.163-24.831-17.991-151.069,213.072L341.607,465.161z"/>
	</g>
	<path fill="#151514" d="M502.638,1087.996c0,0-3.717,2.528-3.717,7.434c0,10.408,27.954,54.569,53.082,54.569
		c19.032,0,33.009-4.461,33.009-10.26c0-8.178-40.146-16.207-52.785-30.63s-13.977-21.857-13.977-21.857
		S514.979,1094.539,502.638,1087.996z"/>
	<path fill="#151514" d="M919.191,1110.82c0,4.907-33.678,37.395-66.985,37.395c-8.921,0-14.572-0.743-18.14-6.84
		c-3.569-6.096-2.379-11.895-2.379-11.895s7.137,1.338,11.003-4.163c0,0,1.784,4.312,10.557,3.866s33.678-21.783,43.64-24.013
		C906.85,1102.94,919.191,1104.278,919.191,1110.82z"/>
	<g>
		<path fill="#FBB93E" d="M493.315,652.222c-24.062,1.116-153.806-33.058-170.34-62.21c-16.534-29.152-6.852-51.482-6.852-51.482
			l46.385-87.888l192.371,55.83c0,0,2.984,0.159,3.433,3.413c0.449,3.254-5.926,16.648-9.88,34.098
			c-3.954,17.45-8.965,53.852-15.254,72.304C526.888,634.739,513.961,651.265,493.315,652.222z"/>
		
			<radialGradient id="SVGID_22_" cx="3985.697" cy="300.647" r="97.8864" gradientTransform="matrix(-0.9989 0.0463 0.0463 0.9989 4455.085 35.1625)" gradientUnits="userSpaceOnUse">
			<stop  offset="0" style="stop-color:#B37604"/>
			<stop  offset="1" style="stop-color:#FBB93E;stop-opacity:0"/>
		</radialGradient>
		<path fill="url(#SVGID_22_)" d="M493.315,652.222c-24.062,1.116-153.806-33.058-170.34-62.21
			c-16.534-29.152-6.852-51.482-6.852-51.482l46.385-87.888l192.371,55.83c0,0,2.984,0.159,3.433,3.413
			c0.449,3.254-5.926,16.648-9.88,34.098c-3.954,17.45-8.965,53.852-15.254,72.304C526.888,634.739,513.961,651.265,493.315,652.222
			z"/>
		
			<radialGradient id="SVGID_23_" cx="4020.7878" cy="333.3586" r="97.8864" gradientTransform="matrix(-0.9989 0.0463 0.0463 0.9989 4455.085 35.1625)" gradientUnits="userSpaceOnUse">
			<stop  offset="0" style="stop-color:#B37604"/>
			<stop  offset="1" style="stop-color:#FBB93E;stop-opacity:0"/>
		</radialGradient>
		<path fill="url(#SVGID_23_)" d="M493.315,652.222c-24.062,1.116-153.806-33.058-170.34-62.21
			c-16.534-29.152-6.852-51.482-6.852-51.482l46.385-87.888l192.371,55.83c0,0,2.984,0.159,3.433,3.413
			c0.449,3.254-5.926,16.648-9.88,34.098c-3.954,17.45-8.965,53.852-15.254,72.304C526.888,634.739,513.961,651.265,493.315,652.222
			z"/>
		
			<radialGradient id="SVGID_24_" cx="4116.5439" cy="311.9474" r="97.8864" gradientTransform="matrix(-0.9989 0.0463 0.0463 0.9989 4455.085 35.1625)" gradientUnits="userSpaceOnUse">
			<stop  offset="0" style="stop-color:#B37604"/>
			<stop  offset="1" style="stop-color:#FBB93E;stop-opacity:0"/>
		</radialGradient>
		<path fill="url(#SVGID_24_)" d="M493.315,652.222c-24.062,1.116-153.806-33.058-170.34-62.21
			c-16.534-29.152-6.852-51.482-6.852-51.482l46.385-87.888l192.371,55.83c0,0,2.984,0.159,3.433,3.413
			c0.449,3.254-5.926,16.648-9.88,34.098c-3.954,17.45-8.965,53.852-15.254,72.304C526.888,634.739,513.961,651.265,493.315,652.222
			z"/>
	</g>
	<path fill="#292927" d="M530.294,494.874l23.79,17.258c0,0,2.676,6.422-2.974,4.013s-8.475-5.421-12.341-4.618
		c-3.866,0.803-30.481-8.626-30.481-8.626L530.294,494.874z"/>
	<path fill="#292927" d="M404.949,585.575c0,0-2.825,17.66-15.464,14.274c-16.653-4.461-8.029-23.493-8.029-23.493L404.949,585.575z
		"/>
	<path fill="#FBB93E" d="M556.44,508.038c0,0-4.116-11.717-18.636-16.7s-16.919,1.082-24.739-0.639
		c-7.82-1.721-127.679-50.643-152.335-49.5c-24.656,1.143-39.357,50.052-50.875,64.876s-27.48,14.075-28.91,15.332
		c-1.43,1.257,8.504,26.101,26.188,35.105s85.194,46.063,131.832,43.901c26.438-1.226,42.405-10.004,53.827-26.907
		c11.422-16.903,26.262-66.823,46.871-67.779C550.802,505.211,556.44,508.038,556.44,508.038z"/>
	<g>
		<path fill="#E94D1A" d="M757.16,416.926c-0.1,3.832-1.883,7.588-7.702,9.927s-38.968,13.252-46.829,13.073
			c-7.86-0.179-88.725-9.218-90.667-10.141s12.526-6.395,12.526-6.395l-9.432-7.543c0,0,57.576-10.498,61.522-10.994
			s67.599,3.687,72.906,4.869C754.789,410.904,757.188,415.862,757.16,416.926z"/>
		
			<radialGradient id="SVGID_25_" cx="3844.4326" cy="409.2288" r="102.8265" gradientTransform="matrix(-1 0 0 1 4480.4448 0)" gradientUnits="userSpaceOnUse">
			<stop  offset="0" style="stop-color:#912806"/>
			<stop  offset="1" style="stop-color:#E94D1A;stop-opacity:0"/>
		</radialGradient>
		<path fill="url(#SVGID_25_)" d="M757.16,416.926c-0.1,3.832-1.883,7.588-7.702,9.927s-38.968,13.252-46.829,13.073
			c-7.86-0.179-88.725-9.218-90.667-10.141s12.526-6.395,12.526-6.395l-9.432-7.543c0,0,57.576-10.498,61.522-10.994
			s67.599,3.687,72.906,4.869C754.789,410.904,757.188,415.862,757.16,416.926z"/>
	</g>
	<path fill="#FFFFFF" d="M703.524,432.297c0.524-4.791-8-7.554-22.091-9.153c-14.091-1.599-65.38-6.252-65.38-6.252
		s7.132,4.504,5.9,7.264c-1.231,2.76-7.013,3.777-7.013,3.777s62.914,8.431,72.638,8.722
		C693.762,436.839,703.031,436.8,703.524,432.297z"/>
	<g>
		<path fill="#FBB93E" d="M764.457,390.685c-0.038,5.304-1.85,10.535-7.941,13.882s-40.83,19.082-49.116,18.985
			S605.52,412.33,603.457,411.091c-0.663-0.398-1.882-1.472-0.063-2.756c3.84-2.711,13.15-6.332,13.15-6.332l-3.13-9.377
			c0,0-8.881,0.287-8.805-2.546c0.087-3.227,65.338-15.49,69.487-16.252s76.531,5.503,82.144,7.037S764.467,389.212,764.457,390.685
			z"/>
		
			<linearGradient id="SVGID_26_" gradientUnits="userSpaceOnUse" x1="3799.7048" y1="370.0333" x2="3795.2441" y2="419.6956" gradientTransform="matrix(-1 0 0 1 4480.4448 0)">
			<stop  offset="0" style="stop-color:#B37604"/>
			<stop  offset="1" style="stop-color:#FBB93E;stop-opacity:0"/>
		</linearGradient>
		<path fill="url(#SVGID_26_)" d="M764.457,390.685c-0.038,5.304-1.85,10.535-7.941,13.882s-40.83,19.082-49.116,18.985
			S605.52,412.33,603.457,411.091c-0.663-0.398-1.882-1.472-0.063-2.756c3.84-2.711,13.15-6.332,13.15-6.332l-3.13-9.377
			c0,0-8.881,0.287-8.805-2.546c0.087-3.227,65.338-15.49,69.487-16.252s76.531,5.503,82.144,7.037S764.467,389.212,764.457,390.685
			z"/>
	</g>
	<path fill="#FFFFFF" d="M708.289,412.034c0.352-7.305-8.694-11.101-23.522-12.864s-78.786-7.067-78.786-7.067
		s7.658,6.506,6.482,10.758c-1.176,4.252-7.192,6.07-7.192,6.07s76.293,10.494,86.493,10.477
		C698.249,419.397,707.958,418.9,708.289,412.034z"/>
	<path fill="#292927" d="M759.462,372.823c-0.166,3.874-2.157,7.624-8.507,9.828c-6.35,2.204-42.486,12.324-51.013,11.925
		c-8.527-0.399-104.601-12.234-106.695-13.222c-0.673-0.317-1.902-1.15,0.001-2.016c4.018-1.828,13.688-4.106,13.688-4.106
		l-2.997-6.975c0,0-9.149-0.142-9.002-2.209c0.167-2.354,67.627-8.729,71.916-9.122s78.646,7.052,84.386,8.395
		S759.508,371.747,759.462,372.823z"/>
	<path fill="#FFFFFF" d="M702.026,386.536c0.471-5.322-4.409-8.479-19.661-10.391c-15.252-1.912-86.148-8.582-86.148-8.582
		s7.793,5.075,6.518,8.132c-1.275,3.057-7.501,4.132-7.501,4.132s83.137,10.694,93.647,11.111
		C695.564,391.201,701.583,391.537,702.026,386.536z"/>
	<g>
		<path fill="#42210B" d="M569.252,179.683c3.042,0,5.211-0.471,5.27-0.484c0.553-0.126,1.311-0.298,1.353-1.09
			c0.025-0.434-0.256-0.842-0.669-0.982c-0.289-0.103-0.591-0.054-0.832,0.098c-1.269,0.283-14.942,2.876-20.523-7.363
			c-0.258-0.471-0.849-0.646-1.32-0.389c-0.471,0.257-0.646,0.848-0.389,1.319C556.229,178.29,564.027,179.683,569.252,179.683z"/>
		<path fill="#42210B" d="M550.357,172.662c0.103,0,0.207-0.016,0.312-0.051c3.703-1.248,4.558-4.777,4.592-4.927
			c0.12-0.523-0.205-1.046-0.729-1.166c-0.528-0.123-1.043,0.205-1.165,0.724c-0.027,0.107-0.667,2.632-3.321,3.527
			c-0.509,0.171-0.783,0.723-0.61,1.232C549.572,172.407,549.95,172.662,550.357,172.662z"/>
	</g>
	<circle cx="547.113" cy="145.78" r="3.457"/>
	<circle cx="583.568" cy="137.388" r="3.457"/>
	<path fill="#D16D37" d="M567.576,142.678c0,0,2.823,7.962,6.016,8.628c3.192,0.666,4.64-0.186,6.491,1.994s-1.103,8.914-6.768,7.28
		C564.24,157.963,567.576,142.678,567.576,142.678z"/>
	<path fill="#292927" d="M535.039,131.614c0.222-2.259,7.576-7.691,14.435-5.956c6.859,1.735-3.266,4.119-5.756,5.051
		C541.228,131.642,534.809,133.958,535.039,131.614z"/>
	<path fill="#292927" d="M590.808,122.776c-0.741-1.991-8.837-4.534-14.776-0.691s4,2.688,6.526,2.721
		C585.084,124.838,591.577,124.842,590.808,122.776z"/>
	<g>
		<path fill="#B86233" d="M509.743,170.853c0.228,0,0.458-0.08,0.642-0.242c0.405-0.355,0.443-0.97,0.087-1.374
			c-8.834-10.032-16.33-4.846-16.404-4.793c-0.437,0.313-0.538,0.92-0.224,1.357c0.313,0.437,0.918,0.536,1.353,0.226
			c0.253-0.178,6.197-4.157,13.817,4.496C509.206,170.742,509.474,170.853,509.743,170.853z"/>
		<path fill="#B86233" d="M500.381,171.902c0.122,0,0.245-0.023,0.365-0.07c0.498-0.201,0.739-0.768,0.538-1.266
			c-1.1-2.728,0.652-5.663,0.671-5.693c0.277-0.459,0.133-1.057-0.327-1.336c-0.454-0.279-1.054-0.136-1.337,0.326
			c-0.093,0.154-2.272,3.809-0.811,7.431C499.633,171.673,499.998,171.902,500.381,171.902z"/>
	</g>
	<g>
		<path fill="#0A0A0A" d="M576.039,78.874c-7.373-2.666-13.952-1.815-18.685-0.303c-3.241,0.071-6.508,0.647-9.715,1.746
			c0.091-0.15,0.205-0.291,0.353-0.404c0.519-0.396,12.863-9.637,29.04-3.781c10.366,3.751,22.391,12.876,22.429,34.842
			c-0.867,0.55-1.851,1.11-2.926,1.672C597.007,95.343,590.129,83.973,576.039,78.874z"/>
		<path fill="#0A0A0A" d="M578.924,90.622c-7.475-7.771-20.634-13.279-35.149-5.443c-0.706,0.384-1.594,0.119-1.977-0.59
			c-0.384-0.709-0.119-1.594,0.59-1.977c1.721-0.93,3.478-1.688,5.252-2.296c3.206-1.099,6.474-1.674,9.715-1.746
			c8.671-0.19,17.141,3.236,23.672,10.029c7.537,7.838,10.482,18.053,8.312,27.177c-1.038,0.377-2.153,0.747-3.314,1.113
			C589.24,107.252,585.141,97.089,578.924,90.622z"/>
		<path fill="#0A0A0A" d="M555.25,98.991c-10.541-7.443-21.893-2.796-22.008-2.748c-0.744,0.313-1.598-0.034-1.911-0.774
			c-0.313-0.741,0.03-1.596,0.77-1.911c0.523-0.224,12.929-5.354,24.832,3.049c8.876,6.265,10.661,17.753,11.382,24.317
			c-0.93,0.149-1.915,0.286-2.889,0.426C564.759,115.247,563.133,104.554,555.25,98.991z"/>
	</g>
	<g>
		
			<radialGradient id="SVGID_27_" cx="3990.2905" cy="617.4117" r="75.5856" gradientTransform="matrix(-1 0 0 1 4480.4448 0)" gradientUnits="userSpaceOnUse">
			<stop  offset="0" style="stop-color:#E09812"/>
			<stop  offset="1" style="stop-color:#FBB93E;stop-opacity:0"/>
		</radialGradient>
		<path fill="url(#SVGID_27_)" d="M521.31,596.307c-1.503,6.945-2.823,14.094-6.399,20.235
			c-4.293,7.373-19.671,21.586-29.031,18.499c-1.07-4.491,2.6-8.556,5.669-12.004c5.59-6.279,9.912-13.538,12.82-21.423
			c2.745-7.443,3.676-15.317,7.237-22.415c4.319-8.609,5.828-18.306,9.783-27.078c4.025-8.927,8.322-17.665,11.875-26.807
			c1.012-2.605,2.785-7.926,6.442-7.051c0.278,1.321-0.649,2.55-1.345,3.706c-1.287,2.137-1.912,4.667-1.768,7.157
			c0.07,1.212,0.802,2.761,1.984,2.487c0.482-0.112,0.834-0.515,1.15-0.895c0.571-0.688,10.356-11.885,10.697-11.185
			c2.198,4.512-5.281,7.97-7.177,11.516c-3.577,6.689-6.241,14.11-8.917,21.193C528.911,566.583,524.553,581.323,521.31,596.307z"/>
		
			<radialGradient id="SVGID_28_" cx="3993.8591" cy="567.8981" r="75.5856" gradientTransform="matrix(-1 0 0 1 4480.4448 0)" gradientUnits="userSpaceOnUse">
			<stop  offset="0" style="stop-color:#B37604"/>
			<stop  offset="1" style="stop-color:#FBB93E;stop-opacity:0"/>
		</radialGradient>
		<path fill="url(#SVGID_28_)" d="M521.31,596.307c-1.503,6.945-2.823,14.094-6.399,20.235
			c-4.293,7.373-19.671,21.586-29.031,18.499c-1.07-4.491,2.6-8.556,5.669-12.004c5.59-6.279,9.912-13.538,12.82-21.423
			c2.745-7.443,3.676-15.317,7.237-22.415c4.319-8.609,5.828-18.306,9.783-27.078c4.025-8.927,8.322-17.665,11.875-26.807
			c1.012-2.605,2.785-7.926,6.442-7.051c0.278,1.321-0.649,2.55-1.345,3.706c-1.287,2.137-1.912,4.667-1.768,7.157
			c0.07,1.212,0.802,2.761,1.984,2.487c0.482-0.112,0.834-0.515,1.15-0.895c0.571-0.688,10.356-11.885,10.697-11.185
			c2.198,4.512-5.281,7.97-7.177,11.516c-3.577,6.689-6.241,14.11-8.917,21.193C528.911,566.583,524.553,581.323,521.31,596.307z"/>
	</g>
	<path fill="#FFFFFF" d="M585.012,1139.74c0,1.699-1.228,3.277-3.403,4.668c-33.223,6.907-44.698-4.036-44.698-4.036
		c4.824-9.441,14.753-13.726,21.64-15.625C572.058,1130.496,585.012,1135.095,585.012,1139.74z"/>
	<path fill="#FFFFFF" d="M919.044,1109.639c-3.929,0.855-11.562,5.419-23.829,16.348c0,0-1.784-10.929-6.673-17.035
		c3.279-1.894,6.169-3.294,8.346-3.781C906.218,1103.081,917.633,1104.123,919.044,1109.639z"/>
	<path fill="#151514" d="M510.745,1091.56c0,0,5.234-25.768,11.069-27.865c2.134-0.767,6.959,4.402,10.942,5.926
		c3.983,1.524,12.719,1.695,11.149,3.94s-26.984,17.932-28.546,24.666C513.798,1104.96,510.745,1091.56,510.745,1091.56z"/>
	<path fill="#151514" d="M841.971,1133.834c0,0-3.247-29.16-0.112-33.591c1.147-1.62,4.882,0.884,7.512,0.499
		s7.871-4.06,7.306-1.366c-0.565,2.694-9.03,24.297-8.846,30.997C848.015,1137.074,841.971,1133.834,841.971,1133.834z"/>
	<g>
		<path fill="#FFFFFF" d="M851.455,1138.337c0.101,0,0.203-0.015,0.304-0.048c0.509-0.167,0.786-0.716,0.621-1.225
			c-0.074-0.23-1.539-5.082,3.473-8.127c0.46-0.279,0.604-0.877,0.327-1.336c-0.283-0.46-0.883-0.602-1.337-0.326
			c-6.368,3.869-4.333,10.329-4.311,10.395C850.665,1138.078,851.047,1138.337,851.455,1138.337z"/>
		<path fill="#FFFFFF" d="M857.666,1136.832c0.19,0,0.38-0.055,0.549-0.169c0.441-0.301,0.557-0.901,0.258-1.345
			c-0.099-0.153-2.341-3.725,2.863-8.203c0.407-0.351,0.454-0.964,0.103-1.372c-0.35-0.406-0.963-0.453-1.372-0.103
			c-6.573,5.656-3.239,10.717-3.205,10.767C857.05,1136.683,857.356,1136.832,857.666,1136.832z"/>
		<path fill="#FFFFFF" d="M863.414,1134.45c0.122,0,0.243-0.023,0.363-0.07c0.498-0.199,0.739-0.766,0.541-1.263
			c-0.085-0.215-2.029-5.313,2.817-9.517c0.407-0.352,0.45-0.967,0.099-1.373c-0.351-0.406-0.969-0.449-1.372-0.098
			c-5.922,5.136-3.374,11.649-3.349,11.715C862.668,1134.221,863.03,1134.45,863.414,1134.45z"/>
		<path fill="#FFFFFF" d="M869.138,1131.361c0.182,0,0.365-0.05,0.528-0.156c0.45-0.292,0.579-0.892,0.291-1.343
			c-0.15-0.238-3.093-5.139,3.137-10.82c0.397-0.363,0.426-0.977,0.063-1.375c-0.363-0.396-0.978-0.425-1.374-0.064
			c-7.508,6.849-3.503,13.249-3.461,13.313C868.507,1131.204,868.821,1131.361,869.138,1131.361z"/>
	</g>
	<g>
		<path fill="#FFFFFF" d="M511.442,1101.694c0.207,0,0.418-0.067,0.595-0.204c0.07-0.054,6.871-5.243,11.621-1.689
			c0.427,0.321,1.037,0.235,1.362-0.197c0.321-0.429,0.234-1.039-0.196-1.361c-5.95-4.447-13.657,1.458-13.982,1.711
			c-0.424,0.33-0.498,0.94-0.169,1.364C510.864,1101.564,511.151,1101.694,511.442,1101.694z"/>
		<path fill="#FFFFFF" d="M516.48,1106.3c0.27,0,0.538-0.111,0.731-0.329c0.173-0.198,4.366-4.815,10.597-1.593
			c0.473,0.247,1.062,0.062,1.311-0.416c0.247-0.477,0.061-1.064-0.416-1.311c-7.61-3.946-12.903,1.978-12.956,2.037
			c-0.351,0.404-0.31,1.015,0.091,1.37C516.024,1106.22,516.252,1106.3,516.48,1106.3z"/>
		<path fill="#FFFFFF" d="M520.697,1110.862c0.302,0,0.602-0.142,0.792-0.408c0.142-0.198,3.592-4.803,11.212-1.13
			c0.477,0.234,1.064,0.031,1.298-0.455c0.234-0.484,0.03-1.065-0.454-1.298c-9.153-4.41-13.6,1.697-13.644,1.758
			c-0.308,0.439-0.203,1.046,0.236,1.355C520.308,1110.804,520.504,1110.862,520.697,1110.862z"/>
		<path fill="#FFFFFF" d="M524.51,1115.497c0.304,0,0.604-0.142,0.792-0.409c0.16-0.217,3.61-4.791,11.211-1.128
			c0.475,0.234,1.064,0.031,1.298-0.455c0.234-0.483,0.03-1.065-0.454-1.298c-9.147-4.407-13.599,1.696-13.642,1.758
			c-0.308,0.44-0.203,1.046,0.236,1.355C524.121,1115.439,524.316,1115.497,524.51,1115.497z"/>
	</g>
	<path fill="#E69365" d="M505.463,365.217c1.284,1.391,43.269,99.919,52.636,110.179c9.367,10.26,92.113,115.309,93.897,119.546
		c1.784,4.238-0.892,6.914-7.806,3.569s-82.969-65.126-101.704-95.013c-18.735-29.887-59.773-87.429-65.126-104.826
		S494.757,353.619,505.463,365.217z"/>
	<path fill="#E94D1A" d="M496.028,262.858c17.018,2.885,51.759,134.851,46.26,139.42c-1.144,0.95-3.594-5.442-14.008-7.924
		c-21.696-5.17-68.539,28.851-66.697,41.274c0.436,2.942-3.625-2.106-4.756-4.095c-1.131-1.989-18.174-67.096-6.593-115.695
		S474.918,259.28,496.028,262.858z"/>
	<path fill="#292927" d="M385.619,589.738c0.892-1.784,5.65-13.085-4.163-18.438c-9.814-5.353-21.114,9.813-21.114,9.813
		L385.619,589.738z"/>
</g>
</svg>
